<svg width="80" height="80" viewBox="0 0 80 80" fill="none" xmlns="http://www.w3.org/2000/svg">
<g clip-path="url(#clip0_1278_12)">
<g clip-path="url(#clip1_1278_12)">
<path opacity="0.1" d="M80 40C80 62.09 62.09 80 40 80C17.91 80 0 62.09 0 40C0 17.91 17.91 0 40 0C62.09 0 80 17.91 80 40Z" fill="#22577A"/>
<path d="M40 71.26C43.85 71.26 47.7 71.26 51.55 71.26C52 71.26 52.14 71.14 52.13 70.68C52.11 65.88 52.11 61.08 52.13 56.28C52.13 55.79 52.01 55.63 51.5 55.63C43.84 55.64 36.17 55.65 28.51 55.63C28.01 55.63 27.87 55.77 27.87 56.27C27.89 61.05 27.89 65.83 27.87 70.61C27.87 71.11 28 71.25 28.5 71.25C32.33 71.23 36.16 71.24 39.99 71.25L40 71.26ZM39.98 54.03C43.92 54.03 47.85 54.03 51.79 54.03C53.17 54.03 53.77 54.63 53.77 56.03V56.6C53.77 61.3 53.77 65.99 53.76 70.69C53.76 71.15 53.89 71.28 54.35 71.27C55.45 71.24 56.56 71.27 57.66 71.26C58.73 71.26 59.37 70.61 59.37 69.55C59.37 64.54 59.46 59.53 59.34 54.53C59.21 49.22 56.62 45.35 51.92 42.89C49.68 41.72 47.23 41.56 44.77 41.53C43.17 41.51 41.56 41.59 39.96 41.6C37.87 41.61 35.78 41.6 33.69 41.6C26.48 41.65 20.68 47.4 20.62 54.6C20.58 59.57 20.61 64.54 20.62 69.52C20.62 70.63 21.25 71.26 22.35 71.26C23.4 71.26 24.46 71.26 25.51 71.26C25.9833 71.26 26.22 71.03 26.22 70.57C26.22 65.72 26.22 60.87 26.22 56.02C26.22 54.65 26.84 54.04 28.22 54.04C32.14 54.04 36.06 54.04 39.98 54.04V54.03ZM40 72.92H22.39C20.35 72.92 18.98 71.55 18.97 69.51C18.97 64.61 18.96 59.7 18.97 54.8C18.99 47.41 24.2 41.29 31.5 40.14C32.85 39.93 34.25 40.01 35.63 39.99C37.01 39.97 38.38 39.99 39.76 39.99C41.03 39.99 42.3 39.99 43.58 39.99C44.49 39.99 45.41 39.96 46.32 39.96C53.95 39.99 60.3 45.84 60.95 53.45C60.99 53.93 61.02 54.41 61.02 54.9C61.02 59.75 61.02 64.6 61.02 69.45C61.02 71.57 59.67 72.92 57.56 72.92C54.62 72.92 51.69 72.92 48.76 72.92H40.01H40Z" fill="#22577A"/>
<path d="M40.08 62.13C39.31 62.1 38.7 62.64 38.66 63.38C38.62 64.12 39.25 64.85 39.95 64.86C40.67 64.88 41.33 64.23 41.35 63.49C41.37 62.77 40.8 62.16 40.08 62.13ZM40 60.47C41.64 60.47 42.99 61.78 43.01 63.39C43.02 64.93 41.97 66.49 39.89 66.43C38.19 66.38 37.04 65.14 37.01 63.45C36.98 61.81 38.34 60.47 40 60.46V60.47Z" fill="#22577A"/>
<path d="M58.32 12.7C52.53 10.5 46.74 8.3 40.96 6.08C40.29 5.82 39.7 5.83 39.03 6.08C34.51 7.83 29.97 9.54 25.44 11.27C24.18 11.75 22.93 12.23 21.67 12.7C21.27 12.85 20.95 13.07 20.95 13.54C20.95 14 21.23 14.26 21.64 14.4C21.85 14.47 22.06 14.56 22.27 14.64C24.4 15.45 26.53 16.27 28.66 17.06C29.03 17.2 29.16 17.39 29.15 17.78C29.13 18.87 29.17 19.96 29.13 21.04C29.11 21.55 29.02 22.07 28.85 22.54C28.14 24.51 27.86 26.54 28.25 28.6C29.08 33.07 31.55 36.2 35.85 37.85C37.34 38.42 38.86 38.67 40.7 38.61C42.42 38.58 44.28 38.02 45.97 37.05C51.16 34.07 53.29 27.71 51.01 22.19C50.92 21.97 50.87 21.72 50.87 21.49C50.86 20.25 50.87 19 50.86 17.76C50.86 17.4 50.96 17.21 51.32 17.08C53.66 16.21 56 15.3 58.34 14.42C58.74 14.27 59.06 14.06 59.07 13.59C59.07 13.09 58.75 12.87 58.33 12.71L58.32 12.7ZM46.26 34.88C42.5 37.79 37.05 37.79 33.29 34.51C29.4 31.12 29.1 26.04 30.5 23C30.7 23.07 30.91 23.14 31.12 23.22C33.85 24.29 36.58 25.36 39.3 26.44C39.78 26.63 40.21 26.64 40.69 26.44C43.46 25.34 46.24 24.25 49.02 23.16C49.18 23.1 49.34 23.05 49.53 22.98C51.08 26.62 50.3 31.74 46.26 34.87V34.88ZM30.79 17.92C31.01 17.99 31.17 18.03 31.33 18.09C33.99 19.1 36.65 20.1 39.31 21.13C39.79 21.32 40.22 21.32 40.7 21.13C43.29 20.13 45.89 19.14 48.48 18.16C48.7 18.08 48.93 18.01 49.22 17.91C49.22 19.02 49.23 20.05 49.21 21.08C49.21 21.2 49.04 21.37 48.91 21.42C46.02 22.57 43.14 23.7 40.24 24.83C40.09 24.89 39.86 24.86 39.7 24.79C36.87 23.69 34.04 22.58 31.22 21.48C30.92 21.36 30.79 21.21 30.8 20.87C30.82 19.91 30.8 18.94 30.8 17.91L30.79 17.92ZM55.42 13.76C50.41 15.67 45.39 17.57 40.37 19.46C40.13 19.55 39.79 19.53 39.54 19.43C35.67 17.97 31.8 16.5 27.93 15.03C26.83 14.61 25.74 14.19 24.64 13.77C24.5 13.72 24.37 13.65 24.12 13.54C24.83 13.27 25.43 13.04 26.04 12.81C30.5 11.11 34.97 9.41 39.43 7.71C39.8 7.57 40.14 7.54 40.52 7.69C45.51 9.6 50.51 11.5 55.51 13.4C55.6 13.43 55.68 13.48 55.84 13.56C55.65 13.65 55.54 13.72 55.42 13.76Z" fill="#22577A"/>
<path d="M57.01 15.35C57.3 16.38 57.54 17.43 57.71 18.48C57.79 19 58.06 19.52 57.91 20.05C57.78 20.57 57.56 21.09 57.01 21.62H56.81C55.8 20.66 55.73 19.66 56.11 18.49C56.28 17.43 56.52 16.39 56.81 15.36H57.01V15.35Z" fill="#22577A"/>
</g>
</g>
<defs>
<clipPath id="clip0_1278_12">
<rect width="80" height="80" fill="white"/>
</clipPath>
<clipPath id="clip1_1278_12">
<rect width="80" height="80" fill="white"/>
</clipPath>
</defs>
</svg>
