<svg width="80" height="80" viewBox="0 0 80 80" fill="none" xmlns="http://www.w3.org/2000/svg">
<g clip-path="url(#clip0_1278_14)">
<g clip-path="url(#clip1_1278_14)">
<path opacity="0.1" d="M40 80C62.0914 80 80 62.0914 80 40C80 17.9086 62.0914 0 40 0C17.9086 0 0 17.9086 0 40C0 62.0914 17.9086 80 40 80Z" fill="#22577A"/>
<path d="M56.54 52.93C54.61 52.93 53.04 51.31 53.04 49.3C53.04 47.29 54.61 45.67 56.54 45.67C58.47 45.67 60.04 47.29 60.04 49.3C60.04 51.3 58.47 52.92 56.54 52.92V52.93ZM56.54 43.8C53.61 43.8 51.23 46.26 51.23 49.3C51.23 52.34 53.61 54.8 56.54 54.8C59.47 54.8 61.85 52.34 61.85 49.3C61.85 46.26 59.48 43.8 56.54 43.79V43.8ZM69.09 56.71C69.09 57.23 68.68 57.65 68.18 57.65H63.49C63.72 57.52 63.94 57.36 64.12 57.17C64.73 56.39 65.07 55.42 65.09 54.42C65.12 53.97 65.21 53.52 65.34 53.09C65.53 52.7 65.77 52.34 66.04 52.02C67.49 50.78 67.69 48.56 66.49 47.06C66.35 46.89 66.2 46.74 66.04 46.6C65.83 46.34 65.63 46.06 65.45 45.78V26.33C65.45 25.82 65.05 25.4 64.55 25.39C63.05 25.39 61.83 24.13 61.83 22.57C61.83 22.05 61.42 21.63 60.92 21.63H19.05C18.55 21.63 18.14 22.05 18.14 22.57C18.14 24.12 16.92 25.38 15.42 25.39C14.92 25.39 14.51 25.81 14.51 26.33V49.22C14.51 49.74 14.92 50.16 15.42 50.16C16.92 50.16 18.13 51.42 18.14 52.97C18.14 53.49 18.55 53.91 19.05 53.91H47.91C47.93 54.07 47.95 54.25 47.97 54.43C47.97 55.43 48.32 56.41 48.94 57.18C49.13 57.37 49.34 57.53 49.58 57.66H11.81C11.31 57.66 10.9 57.24 10.9 56.72V18.81C10.9 18.29 11.31 17.87 11.81 17.87H68.19C68.69 17.87 69.1 18.29 69.1 18.81V56.71H69.09ZM47.02 52.02H19.86C19.49 50.18 18.11 48.75 16.34 48.36V27.16C18.12 26.78 19.51 25.34 19.87 23.5H60.13C60.5 25.34 61.89 26.78 63.66 27.16V41.05C62.98 40.68 62.24 40.48 61.48 40.44C61.04 40.41 60.61 40.32 60.19 40.18C59.82 39.98 59.47 39.74 59.16 39.45C58.46 38.72 57.53 38.27 56.54 38.17C55.55 38.27 54.62 38.72 53.92 39.45C53.61 39.74 53.26 39.98 52.89 40.18C52.47 40.32 52.04 40.41 51.6 40.44C50.63 40.44 49.69 40.8 48.94 41.44C48.33 42.22 47.99 43.19 47.97 44.19C47.94 44.64 47.85 45.09 47.72 45.53C47.53 45.92 47.29 46.28 47.02 46.6C45.57 47.85 45.38 50.07 46.58 51.57C46.71 51.74 46.86 51.89 47.02 52.03V52.02ZM62.85 55.84C62.37 56.14 61.82 56.3 61.26 56.3C60.66 56.35 60.06 56.48 59.49 56.69C58.96 56.95 58.47 57.29 58.03 57.69C57.63 58.12 57.11 58.42 56.54 58.55C55.97 58.42 55.45 58.12 55.05 57.69C54.61 57.29 54.12 56.95 53.59 56.69C53.02 56.48 52.42 56.34 51.82 56.3C51.26 56.3 50.71 56.14 50.23 55.84C49.94 55.34 49.78 54.77 49.78 54.19C49.74 53.69 49.65 53.19 49.52 52.71C49.52 52.69 49.51 52.67 49.5 52.65C49.47 52.55 49.44 52.46 49.4 52.36C49.15 51.81 48.83 51.3 48.44 50.84C48.02 50.42 47.73 49.88 47.61 49.3C47.74 48.71 48.03 48.18 48.44 47.76C48.83 47.3 49.15 46.79 49.4 46.24C49.61 45.65 49.74 45.03 49.78 44.41C49.78 43.83 49.93 43.26 50.23 42.76C50.71 42.46 51.26 42.3 51.82 42.3C52.42 42.25 53.02 42.12 53.59 41.91C54.12 41.65 54.61 41.31 55.05 40.91C55.45 40.48 55.97 40.18 56.54 40.05C57.11 40.18 57.63 40.48 58.03 40.91C58.47 41.31 58.96 41.65 59.49 41.91C60.06 42.12 60.66 42.26 61.26 42.3C61.82 42.3 62.37 42.46 62.85 42.76C63.14 43.26 63.3 43.83 63.3 44.41C63.34 45.04 63.47 45.65 63.68 46.24C63.7 46.28 63.71 46.32 63.73 46.35L63.75 46.41C63.99 46.89 64.29 47.34 64.63 47.76C65.05 48.18 65.34 48.71 65.46 49.3C65.33 49.89 65.04 50.42 64.63 50.84C64.24 51.3 63.92 51.81 63.67 52.36C63.46 52.95 63.33 53.57 63.29 54.19C63.29 54.77 63.14 55.34 62.84 55.84H62.85ZM61.14 70.72L57.51 68.24C56.93 67.84 56.17 67.84 55.59 68.24L51.95 70.72V58.21C52.27 58.24 52.59 58.32 52.9 58.43C53.27 58.63 53.62 58.87 53.93 59.16C54.63 59.89 55.56 60.34 56.55 60.44C57.54 60.34 58.47 59.89 59.17 59.16C59.48 58.87 59.83 58.63 60.2 58.43C60.51 58.32 60.82 58.24 61.15 58.21V70.72H61.14ZM68.19 16H11.81C10.31 16 9.09 17.26 9.09 18.81V56.71C9.09 58.26 10.31 59.52 11.81 59.53H50.13V70.85C50.13 71.85 50.91 72.66 51.88 72.66C52.22 72.66 52.56 72.56 52.84 72.36L56.54 69.84L60.24 72.36C61.05 72.91 62.13 72.68 62.66 71.84C62.85 71.54 62.95 71.2 62.95 70.84V59.52H68.19C69.69 59.52 70.9 58.26 70.9 56.71V18.81C70.9 17.26 69.68 16 68.18 16H68.19Z" fill="#22577A"/>
<path d="M41.49 47.95C39.95 48.63 38.24 48.79 36.61 48.4C36.08 48.24 35.57 48.02 35.09 47.75C34.39 47.34 33.63 47.06 32.84 46.92C31.05 46.67 29.23 47.05 27.68 48.01C27.23 48.24 27.05 48.81 27.28 49.27C27.5 49.73 28.05 49.92 28.5 49.68C28.52 49.68 28.53 49.66 28.55 49.65C29.75 48.9 31.16 48.59 32.56 48.77C33.17 48.89 33.75 49.11 34.29 49.42C34.88 49.75 35.51 50.01 36.15 50.2C36.84 50.39 37.55 50.49 38.27 50.49C39.59 50.47 40.9 50.2 42.13 49.69C42.59 49.49 42.8 48.93 42.6 48.46C42.42 48.02 41.94 47.79 41.49 47.94V47.95Z" fill="#22577A"/>
<path d="M45.43 42.26H20.86C20.36 42.28 19.97 42.72 19.99 43.24C20.01 43.73 20.39 44.12 20.86 44.14H45.43C45.93 44.12 46.32 43.68 46.3 43.16C46.28 42.67 45.9 42.28 45.43 42.26Z" fill="#22577A"/>
<path d="M45.43 38.51H20.86C20.36 38.53 19.97 38.97 19.99 39.49C20.01 39.98 20.39 40.37 20.86 40.39H45.43C45.93 40.37 46.32 39.93 46.3 39.41C46.28 38.92 45.9 38.53 45.43 38.51Z" fill="#22577A"/>
<path d="M30.82 35.7C30.82 36.22 31.23 36.64 31.73 36.64H59.14C59.64 36.66 60.06 36.26 60.08 35.74C60.1 35.22 59.71 34.78 59.21 34.76C59.19 34.76 59.16 34.76 59.14 34.76H31.73C31.23 34.76 30.82 35.18 30.82 35.7Z" fill="#22577A"/>
<path d="M20.86 36.63H26.54C27.04 36.65 27.46 36.25 27.48 35.73C27.5 35.21 27.11 34.77 26.61 34.75C26.59 34.75 26.56 34.75 26.54 34.75H20.87C20.37 34.77 19.98 35.21 20 35.73C20.02 36.22 20.4 36.61 20.87 36.63H20.86Z" fill="#22577A"/>
<path d="M28.11 29.13H51.9C52.4 29.11 52.79 28.67 52.77 28.15C52.75 27.66 52.37 27.27 51.9 27.25H28.12C27.62 27.27 27.23 27.71 27.25 28.23C27.27 28.72 27.65 29.11 28.12 29.13H28.11Z" fill="#22577A"/>
</g>
</g>
<defs>
<clipPath id="clip0_1278_14">
<rect width="80" height="80" fill="white"/>
</clipPath>
<clipPath id="clip1_1278_14">
<rect width="80" height="80" fill="white"/>
</clipPath>
</defs>
</svg>
