<svg width="80" height="80" viewBox="0 0 80 80" fill="none" xmlns="http://www.w3.org/2000/svg">
<g clip-path="url(#clip0_1278_11)">
<path d="M50.8218 36.1376L51.5776 36.285C55.3142 37.0427 58.3727 38.1203 60.5405 39.4198C62.8432 40.8002 64.2006 42.4703 64.2007 44.3182C64.2007 45.5576 63.5934 46.7118 62.5229 47.7421C61.4538 48.7711 59.9087 49.692 57.9907 50.4764C54.1536 52.0459 48.7716 53.0902 42.5571 53.3358H42.5474C42.3436 53.3358 42.1606 53.2362 42.0337 53.1093C41.9068 52.9823 41.8071 52.7993 41.8071 52.5956C41.8073 52.2318 42.0951 51.8615 42.5376 51.8563L43.6011 51.8065C48.8795 51.5145 53.5673 50.5861 56.9927 49.2831C58.8207 48.5877 60.2761 47.7899 61.27 46.9364C62.2659 46.0812 62.77 45.1954 62.77 44.3182C62.7699 43.044 61.6841 41.7246 59.5669 40.5321C57.4687 39.3504 54.4366 38.3409 50.73 37.6581L50.5259 37.62V36.0829L50.8218 36.1376Z" fill="#22577A" stroke="#22577A" stroke-width="0.5"/>
<path d="M27.1943 36.5689C27.3703 36.5552 27.5414 36.6144 27.6738 36.7027C27.8251 36.8037 27.9596 36.9656 28 37.1675L28.0107 37.2427C28.0246 37.4189 27.9654 37.5896 27.877 37.7222C27.776 37.8736 27.6142 38.0089 27.4121 38.0493L27.4111 38.0484C24.2223 38.7793 21.6588 39.7632 19.8984 40.8687C18.1231 41.9836 17.2297 43.1796 17.2295 44.3179C17.2295 45.2524 17.7845 46.1872 18.8691 47.0786C19.9513 47.968 21.5294 48.7869 23.4922 49.4888C27.277 50.8422 32.4439 51.7397 38.1064 51.8892L36.7373 50.5201C36.4438 50.2265 36.4438 49.7736 36.7373 49.48L36.8545 49.3843C37.1416 49.1917 37.5195 49.2235 37.7764 49.48L40.4707 52.1743L40.5674 52.2915C40.7321 52.5375 40.7321 52.8503 40.5674 53.0962L40.4707 53.2134L37.8262 55.8579C37.5326 56.1515 37.0797 56.1515 36.7861 55.8579C36.493 55.5644 36.4928 55.1123 36.7861 54.8189L38.2324 53.3716C33.1822 53.2568 28.6087 52.5814 24.9297 51.5074C21.4761 50.4991 18.7805 49.1294 17.2295 47.523V61.9019C17.2295 62.8569 17.8203 63.8151 18.9756 64.7281C20.1272 65.6381 21.8044 66.4739 23.8867 67.1822C28.0491 68.5979 33.776 69.4888 40 69.4888C46.224 69.4888 51.9509 68.5979 56.1133 67.1822C58.1956 66.4739 59.8728 65.6381 61.0244 64.7281C62.1797 63.8151 62.7705 62.8569 62.7705 61.9019V49.9995C62.7706 49.796 62.8397 49.6071 62.9785 49.4683C63.1173 49.3295 63.3062 49.2604 63.5098 49.2603C63.9575 49.2603 64.2498 49.6332 64.25 49.9995V61.9019C64.25 63.235 63.5392 64.4676 62.3096 65.5542C61.0804 66.6404 59.312 67.6011 57.1377 68.3999C52.7865 69.9985 46.7552 70.9683 40 70.9683C33.2447 70.9683 27.2135 69.9985 22.8623 68.3999C20.688 67.6011 18.9196 66.6404 17.6904 65.5542C16.4608 64.4676 15.75 63.235 15.75 61.9019V44.3179C15.7502 42.6768 16.8736 41.1419 18.8174 39.8316C20.768 38.5166 23.5922 37.3927 27.1113 36.5806L27.1182 36.5796L27.1943 36.5689Z" fill="#22577A" stroke="#22577A" stroke-width="0.5"/>
<path d="M32.8004 57.0969C34.4077 57.0972 35.7438 58.434 35.7438 60.0413C35.7437 60.8907 35.3692 61.6968 34.7653 62.2434C35.3681 62.7804 35.7437 63.5537 35.7438 64.4485C35.7438 66.0558 34.4077 67.3926 32.8004 67.3928C31.193 67.3928 29.8561 66.0559 29.8561 64.4485C29.8562 64.2449 29.9253 64.056 30.0641 63.9172C30.203 63.7783 30.3926 63.7092 30.5963 63.7092C30.7999 63.7093 30.9888 63.7784 31.1276 63.9172C31.2664 64.056 31.3355 64.2449 31.3356 64.4485C31.3356 65.241 32.0079 65.9133 32.8004 65.9133C33.5928 65.9131 34.2643 65.2409 34.2643 64.4485C34.264 63.6563 33.5926 62.9849 32.8004 62.9846C32.5967 62.9846 32.4071 62.9155 32.2682 62.7766C32.1294 62.6378 32.0603 62.4489 32.0602 62.2454C32.0602 62.0416 32.1293 61.852 32.2682 61.7131C32.4071 61.5742 32.5967 61.5051 32.8004 61.5051C33.5926 61.5049 34.2641 60.8334 34.2643 60.0413C34.2643 59.2489 33.5928 58.5767 32.8004 58.5764C32.0079 58.5764 31.3356 59.2487 31.3356 60.0413C31.3355 60.2448 31.2664 60.4337 31.1276 60.5725C30.9888 60.7113 30.7999 60.7804 30.5963 60.7805C30.3926 60.7805 30.203 60.7114 30.0641 60.5725C29.9253 60.4337 29.8562 60.2448 29.8561 60.0413C29.8561 58.4338 31.193 57.0969 32.8004 57.0969Z" fill="#22577A" stroke="#22577A" stroke-width="0.5"/>
<path d="M40.0005 57.0969C41.6077 57.0972 42.9438 58.434 42.9438 60.0413C42.9437 60.2448 42.8746 60.4337 42.7358 60.5725C42.597 60.7113 42.4081 60.7804 42.2046 60.7805C42.0008 60.7805 41.8112 60.7114 41.6723 60.5725C41.5335 60.4337 41.4644 60.2448 41.4643 60.0413C41.4643 59.2489 40.7928 58.5767 40.0005 58.5764C39.2079 58.5764 38.5356 59.2487 38.5356 60.0413V61.5051H40.0005C41.6076 61.5054 42.9436 62.8414 42.9438 64.4485C42.9438 66.0558 41.6077 67.3926 40.0005 67.3928C38.393 67.3928 37.0561 66.0559 37.0561 64.4485V60.0413C37.0561 58.4338 38.393 57.0969 40.0005 57.0969ZM38.5356 64.4485C38.5356 65.241 39.2079 65.9133 40.0005 65.9133C40.7928 65.9131 41.4643 65.2409 41.4643 64.4485C41.4641 63.6563 40.7926 62.9849 40.0005 62.9846H38.5356V64.4485Z" fill="#22577A" stroke="#22577A" stroke-width="0.5"/>
<path d="M47.1512 58.5764C46.3679 58.5764 45.7361 59.2392 45.7361 60.0413V64.4485C45.7361 65.241 46.4074 65.9133 47.2 65.9133C47.9917 65.9133 48.6625 65.2429 48.6638 64.4514L48.615 60.0432V60.0413L48.6072 59.8938C48.5305 59.167 47.8941 58.5765 47.1512 58.5764ZM50.1404 64.5989C50.0605 66.1387 48.7572 67.3928 47.2 67.3928C45.5925 67.3928 44.2556 66.0559 44.2556 64.4485V60.0413H44.2566C44.2074 58.4292 45.548 57.0969 47.1512 57.0969C48.7577 57.097 50.0931 58.432 50.0945 60.0383L50.1433 64.4465L50.1443 64.4485L50.1404 64.5989Z" fill="#22577A" stroke="#22577A" stroke-width="0.5"/>
<path d="M51.8527 53.9622C52.9212 53.9622 53.8173 54.8576 53.8175 55.9261C53.8175 56.9948 52.9213 57.891 51.8527 57.891C50.7842 57.8907 49.8888 56.9947 49.8888 55.9261C49.889 54.8578 50.7843 53.9625 51.8527 53.9622ZM51.8527 55.4417C51.5992 55.442 51.3685 55.6727 51.3683 55.9261C51.3683 56.1797 51.5991 56.4112 51.8527 56.4115C52.1064 56.4115 52.338 56.1799 52.338 55.9261C52.3378 55.6725 52.1063 55.4417 51.8527 55.4417Z" fill="#22577A" stroke="#22577A" stroke-width="0.5"/>
<g clip-path="url(#clip1_1278_11)">
<path opacity="0.1" d="M80 40C80 62.09 62.09 80 40 80C17.91 80 0 62.09 0 40C0 17.91 17.91 0 40 0C62.09 0 80 17.91 80 40Z" fill="#22577A"/>
<path d="M39 28L25 24V44L39 48V28Z" fill="#E9EFF2"/>
<path d="M40 28L53.5 24V44L40 48V28Z" fill="#E9EFF2"/>
<path fill-rule="evenodd" clip-rule="evenodd" d="M39.2341 49.9599L24.6643 45.5293C24.2699 45.4094 24 45.0432 24 44.6278V23.0516C24 22.7537 24.1398 22.4734 24.3769 22.2957C24.6141 22.1181 24.9206 22.064 25.2034 22.1501L28.3505 23.107C30.1391 20.9303 32.542 19.2857 35.2909 18.4437C33.1469 17.0431 31.7235 14.6082 31.7235 11.8495C31.7235 7.52721 35.2175 4 39.5037 4C43.7937 4 47.2874 7.52733 47.2874 11.8495C47.2874 14.6084 45.8641 17.0434 43.7188 18.4438C46.4675 19.2857 48.8698 20.9295 50.6578 23.105L53.7966 22.1501C54.0794 22.064 54.3859 22.1181 54.6231 22.2957C54.8603 22.4733 55 22.7537 55 23.0516V44.6278C55 45.0431 54.7303 45.4094 54.336 45.5293L39.7733 49.9598C39.5952 50.0141 39.4077 50.0127 39.2341 49.9599ZM30.3171 23.7051L39.5036 26.4987L48.6912 23.7034C46.3911 21.2384 43.1261 19.6992 39.5037 19.6992C35.8823 19.6992 32.6175 21.2392 30.3171 23.7051ZM38.5699 28.1818C35.8709 27.361 25.8675 24.3191 25.8675 24.3191V43.9282L38.5699 47.7908V28.1818ZM39.5037 17.8159C42.7645 17.8159 45.4199 15.1347 45.4199 11.8495C45.4199 8.56433 42.7645 5.88331 39.5037 5.88331C36.2461 5.88331 33.591 8.56445 33.591 11.8495C33.591 15.1346 36.2461 17.8159 39.5037 17.8159ZM53.1325 24.3193L40.4374 28.1816V47.7907L53.1325 43.9283V24.3193Z" fill="#22577A"/>
</g>
</g>
<defs>
<clipPath id="clip0_1278_11">
<rect width="80" height="80" fill="white"/>
</clipPath>
<clipPath id="clip1_1278_11">
<rect width="80" height="80" fill="white"/>
</clipPath>
</defs>
</svg>
