<svg xmlns="http://www.w3.org/2000/svg" width="150" height="40" xmlns:v="https://vecta.io/nano"><g fill-rule="evenodd"><path d="M18.8 25.1l4 13.5c.1.5.5.4.7.1l7.2-10.4c.3-.4.2-.9-.1-1.2h-.1l-11.7-9v7zm12.6-5.4L35.1 7c.2-.7-.1-1-.9-.4L19.1 17.1l6.3 4.9 5.8-2c.1-.1.2-.2.2-.3" fill="#b9d719"/><path d="M17.9 25.1l-4 13.5c-.1.5-.5.4-.7.1L6 28.2c-.3-.4-.2-.9.1-1.2h.1l11.7-9v7.1zM5.2 19.7L1.6 7c-.2-.7.1-1 .9-.5l15.1 10.6-6.4 4.9-5.8-2c-.1-.1-.2-.2-.2-.3" fill="#686868"/></g><g fill="none" stroke="#686868" stroke-width=".658" stroke-miterlimit="2.61"><path d="M4.3 2.1C5 .8 6.9.5 8.7 1.4s2.6 2.7 1.9 4-2.7 1.6-4.5.7-2.5-2.8-1.8-4z"/><path d="M8.9 1.5s1.5 3.7-2.6 4.6m2.5-1.6s6.8 2.3 9.4 12.4" stroke-linecap="round"/><path d="M32.3 2.1c-.7-1.3-2.6-1.6-4.4-.7s-2.5 2.7-1.9 4 2.6 1.6 4.4.7c1.7-.9 2.5-2.8 1.9-4z"/><path d="M27.7 1.5s-1.5 3.7 2.6 4.6m-2.6-1.6s-6.8 2.3-9.4 12.4" stroke-linecap="round"/></g><path d="M37.7 30.6v-1.8h1.9v-12h-1.9V15h5.7v1.8h-1.9v12h1.9v1.8h-5.7zm8.4 0v-2.5H48v2.5h-1.9zm8.2 0V16.8h-4.6V15h11.1v1.8h-4.6v13.8h-1.9zm8.2 0v-2.5h1.9v2.5h-1.9z" enable-background="new" fill="#686868"/><path d="M71.4 30.6l-5.3-15.5h2l4.5 13.7h.5l4.5-13.7h2l-5.3 15.5h-2.9zm10.3 0V15.1H92v1.8h-8.3v4.7h7.4v1.7h-7.4v5.5H92v1.8H81.7zm13.2 0V15.1h8.4l3.2 3.3v9l-3.2 3.3h-8.4zm1.9-1.7h5.6l2.2-2.2V19l-2.2-2.2h-5.6v12.1zm11.1 1.7l5.2-15.5h3l5.2 15.5h-2l-1.3-4h-6.8l-1.3 4h-2zm3.9-5.7h5.7l-2.6-8h-.5l-2.6 8zm11.7 5.7V15.1h2.6l6.9 12.5V15.1h1.9v15.5h-2.3l-6.8-12.3h-.5v12.3h-1.8zm18.2 0V16.8H137V15h11.1v1.8h-4.6v13.8h-1.8z" enable-background="new" fill="#b9d719"/><path d="M79.6 38.2v-5h2.9l1.1 1.1v2.9l-1.1 1.1h-2.9zm.9-.7h1.6l.6-.6v-2.3l-.6-.6h-1.6v3.5zm4.7.7l-.8-.8v-2l.8-.8h1.6l.8.8v1.3h-2.3v.5l.3.3h2v.7h-2.4zm0-2.1h1.5v-.5l-.3-.3h-.9l-.3.3v.5zm4 2.1l-.8-.8v-2l.8-.8h1.7l.7.7v.7h-.8v-.4l-.3-.3h-.9l-.3.3v1.6l.3.3h2v.7h-2.4zm3.9 0l-.8-.8v-2l.8-.8h1.8l.8.8v2l-.8.8h-1.8zm.3-.6h1l.3-.3v-1.7l-.3-.3h-1l-.3.3v1.7l.3.3zm3.8.6l-.8-.8v-2l.8-.8h1.3l.5.5v-2h.8v5H99v-.5l-.5.5h-1.3zm1.1-.6l.7-.7V36l-.7-.7h-.7l-.3.3v1.7l.3.3h.7zm3.2.6l-.8-.8v-2l.8-.8h1.6l.8.8v1.3h-2.3v.5l.3.3h2v.7h-2.4zm.1-2.1h1.5v-.5l-.3-.3h-.9l-.3.3v.5zm5.5 3.4l.6-1.5h-.3l-1.4-3.3h.9l.9 2.5h.2l.9-2.5h.9l-2 4.8h-.7zm3.9-1.3l-.8-.8v-2l.8-.8h1.8l.8.8v2l-.8.8H111zm.4-.6h1l.3-.3v-1.7l-.3-.3h-1l-.3.3v1.7l.3.3zm3.8.6l-.8-.8v-2.8h.8v2.6l.3.3h.7l.7-.7v-2.2h.8v3.5h-.7v-.5l-.5.5h-1.3zm3.6 0v-3.5h.8v.6l.6-.6h.8v.8h-.8l-.6.6v2.1h-.8zm5.1 0l-.8-.8v-2l.8-.8h1.3l.5.5v-2h.8v5h-.8v-.5l-.5.5h-1.3zm1.1-.6l.7-.7V36l-.7-.7h-.7l-.3.3v1.7l.3.3h.7zm2.6.6v-3.5h.8v.6l.6-.6h.8v.8h-.8l-.6.6v2.1h-.8zm3.4 0l-.8-.8v-2l.8-.8h1.6l.8.8v1.3h-2.3v.5l.3.3h2v.7H131zm.1-2.1h1.5v-.5l-.3-.3h-.9l-.3.3v.5zm3.5 2.1l-.8-.8v-.8l.8-.8h1.7v-.3l-.3-.3h-1.7v-.7h2.1l.8.8v2.8h-.8v-.5l-.5.5h-1.3zm.4-.6h.6l.7-.7v-.3H135l-.3.3v.4l.3.3zm3.1.6v-3.5h.8v.6l.6-.6h1.3l.6.6.6-.6h1.3l.8.8v2.8h-.8v-2.6l-.3-.3h-.7l-.7.7v2.2h-.8v-2.6l-.3-.3h-.7l-.8.8v2.1h-.9zm7.1 0v-.7h1.9l.3-.3V37l-.3-.3h-1.3l-.8-.7v-.7l.7-.7h2.1v.7h-1.7l-.3.3v.2l.3.3h1.3l.7.7v.8l-.7.7h-2.2z" enable-background="new" fill="#686868"/></svg>